<svg height="750" width="720" xmlns="http://www.w3.org/2000/svg">
<rect height="750" fill="#555" width="720"></rect>
<text fill="#7f7" font-family="Courier New" font-size="12" xml:space="preserve">
<tspan x="10" y="26">17 megabytes installed</tspan>
<tspan x="10" y="42"></tspan>
<tspan x="10" y="58">node_modules</tspan>
<tspan x="10" y="74">├── UNMET PEER DEPENDENCY react@^15.0</tspan>
<tspan x="10" y="90">└─┬ styled-jsx@0.5.7 </tspan>
<tspan x="10" y="106">  ├── babel-plugin-syntax-jsx@6.18.0 </tspan>
<tspan x="10" y="122">  ├─┬ babel-traverse@6.21.0 </tspan>
<tspan x="10" y="138">  │ ├─┬ babel-code-frame@6.22.0 </tspan>
<tspan x="10" y="154">  │ │ ├─┬ chalk@1.1.3 </tspan>
<tspan x="10" y="170">  │ │ │ ├── ansi-styles@2.2.1 </tspan>
<tspan x="10" y="186">  │ │ │ ├─┬ has-ansi@2.0.0 </tspan>
<tspan x="10" y="202">  │ │ │ │ └── ansi-regex@2.1.1 </tspan>
<tspan x="10" y="218">  │ │ │ ├── strip-ansi@3.0.1 </tspan>
<tspan x="10" y="234">  │ │ │ └── supports-color@2.0.0 </tspan>
<tspan x="10" y="250">  │ │ ├── esutils@2.0.2 </tspan>
<tspan x="10" y="266">  │ │ └── js-tokens@3.0.1 </tspan>
<tspan x="10" y="282">  │ ├── babel-messages@6.23.0 </tspan>
<tspan x="10" y="298">  │ ├─┬ babel-runtime@6.23.0 </tspan>
<tspan x="10" y="314">  │ │ ├── core-js@2.4.1 </tspan>
<tspan x="10" y="330">  │ │ └── regenerator-runtime@0.10.3 </tspan>
<tspan x="10" y="346">  │ ├─┬ babel-types@6.24.1 </tspan>
<tspan x="10" y="362">  │ │ └── to-fast-properties@1.0.2 </tspan>
<tspan x="10" y="378">  │ ├─┬ debug@2.6.4 </tspan>
<tspan x="10" y="394">  │ │ └── ms@0.7.3 </tspan>
<tspan x="10" y="410">  │ ├── globals@9.17.0 </tspan>
<tspan x="10" y="426">  │ ├─┬ invariant@2.2.2 </tspan>
<tspan x="10" y="442">  │ │ └── loose-envify@1.3.1 </tspan>
<tspan x="10" y="458">  │ └── lodash@4.17.4 </tspan>
<tspan x="10" y="474">  ├── babylon@6.14.1 </tspan>
<tspan x="10" y="490">  ├── convert-source-map@1.3.0 </tspan>
<tspan x="10" y="506">  ├── escape-string-regexp@1.0.5 </tspan>
<tspan x="10" y="522">  ├─┬ object.entries@1.0.4 </tspan>
<tspan x="10" y="538">  │ ├─┬ define-properties@1.1.2 </tspan>
<tspan x="10" y="554">  │ │ ├── foreach@2.0.5 </tspan>
<tspan x="10" y="570">  │ │ └── object-keys@1.0.11 </tspan>
<tspan x="10" y="586">  │ ├─┬ es-abstract@1.7.0 </tspan>
<tspan x="10" y="602">  │ │ ├─┬ es-to-primitive@1.1.1 </tspan>
<tspan x="10" y="618">  │ │ │ ├── is-date-object@1.0.1 </tspan>
<tspan x="10" y="634">  │ │ │ └── is-symbol@1.0.1 </tspan>
<tspan x="10" y="650">  │ │ ├── is-callable@1.1.3 </tspan>
<tspan x="10" y="666">  │ │ └── is-regex@1.0.4 </tspan>
<tspan x="10" y="682">  │ ├── function-bind@1.1.0 </tspan>
<tspan x="10" y="698">  │ └── has@1.0.1 </tspan>
<tspan x="10" y="714">  ├── source-map@0.5.6 </tspan>
<tspan x="10" y="730">  └── string-hash@1.1.1</tspan>
</text>
</svg>
